HIERARCHY
ROOT Hips
{
	OFFSET 0.000000 0.000000 0.000000
	CHANNELS 6 Xposition Yposition Zposition Xrotation Yrotation Zrotation
	JOINT LeftUpLeg_virtual
	{
		OFFSET 0.000000 0.000000 0.000000
		CHANNELS 3 Xrotation Yrotation Zrotation
		JOINT LeftUpLeg
		{
			OFFSET 10.205400 -3.823500 0.155100
			CHANNELS 3 Xrotation Yrotation Zrotation
			JOINT LeftLeg
			{
				OFFSET 0.708757 -12.982077 0.567790
				CHANNELS 3 Xrotation Yrotation Zrotation
				JOINT LeftFoot
				{
					OFFSET -0.708756 -10.717838 -2.184338
					CHANNELS 3 Xrotation Yrotation Zrotation
					JOINT LeftToeBase
					{
						OFFSET 0.108149 -7.191104 7.560241
						CHANNELS 3 Xrotation Yrotation Zrotation
						JOINT LeftToe_End
						{
							OFFSET 0.070230 0.081724 4.490308
							CHANNELS 3 Xrotation Yrotation Zrotation
							End Site
							{
								OFFSET 0 0 0
							}
						}
					}
				}
			}
		}
	}
	JOINT RightUpLeg_virtual
	{
		OFFSET 0.000000 0.000000 0.000000
		CHANNELS 3 Xrotation Yrotation Zrotation
		JOINT RightUpLeg
		{
			OFFSET -10.205400 -3.823500 0.005500
			CHANNELS 3 Xrotation Yrotation Zrotation
			JOINT RightLeg
			{
				OFFSET -0.708756 -12.982134 0.610632
				CHANNELS 3 Xrotation Yrotation Zrotation
				JOINT RightFoot
				{
					OFFSET 0.708754 -10.717769 -1.945823
					CHANNELS 3 Xrotation Yrotation Zrotation
					JOINT RightToeBase
					{
						OFFSET -0.108140 -7.191069 7.372968
						CHANNELS 3 Xrotation Yrotation Zrotation
						JOINT RightToe_End
						{
							OFFSET -0.070227 0.081735 4.479403
							CHANNELS 3 Xrotation Yrotation Zrotation
							End Site
							{
								OFFSET 0 0 0
							}
						}
					}
				}
			}
		}
	}
	JOINT Spine_virtual
	{
		OFFSET 0.000000 0.000000 0.000000
		CHANNELS 3 Xrotation Yrotation Zrotation
		JOINT Spine
		{
			OFFSET 0.000000 6.876099 0.125700
			CHANNELS 3 Xrotation Yrotation Zrotation
			JOINT Spine1
			{
				OFFSET 0.000000 5.730043 0.104720
				CHANNELS 3 Xrotation Yrotation Zrotation
				JOINT Spine1_split
				{
					OFFSET 0.000000 5.730043 0.104720
					CHANNELS 3 Xrotation Yrotation Zrotation
					JOINT Spine2
					{
						OFFSET 0.000000 5.730043 0.104720
						CHANNELS 3 Xrotation Yrotation Zrotation
						JOINT Neck_virtual
						{
							OFFSET 0.000000 0.000000 0.000000
							CHANNELS 3 Xrotation Yrotation Zrotation
							JOINT Neck
							{
								OFFSET 0.000000 10.314075 0.188496
								CHANNELS 3 Xrotation Yrotation Zrotation
								JOINT Head
								{
									OFFSET 0.000000 7.643700 -2.377400
									CHANNELS 3 Xrotation Yrotation Zrotation
									JOINT HeadTop_End
									{
										OFFSET 0.000000 43.788605 -13.619600
										CHANNELS 3 Xrotation Yrotation Zrotation
										End Site
										{
											OFFSET 0 0 0
										}
									}
								}
							}
						}
						JOINT LeftShoulder_virtual
						{
							OFFSET 0.000000 0.000000 0.000000
							CHANNELS 3 Xrotation Yrotation Zrotation
							JOINT LeftShoulder
							{
								OFFSET 2.196100 4.412489 0.087492
								CHANNELS 3 Xrotation Yrotation Zrotation
								JOINT LeftShoulder_split
								{
									OFFSET 2.196100 4.412489 0.087492
									CHANNELS 3 Xrotation Yrotation Zrotation
									JOINT LeftArm
									{
										OFFSET 8.771219 -2.981674 -0.026999
										CHANNELS 3 Xrotation Yrotation Zrotation
										JOINT LeftForeArm
										{
											OFFSET 8.512804 0.000000 -0.000000
											CHANNELS 3 Xrotation Yrotation Zrotation
											JOINT LeftHand
											{
												OFFSET 18.484802 0.000000 -0.000000
												CHANNELS 3 Xrotation Yrotation Zrotation
												End Site
												{
													OFFSET 0 0 0
												}
											}
										}
									}
								}
							}
						}
						JOINT RightShoulder_virtual
						{
							OFFSET 0.000000 0.000000 0.000000
							CHANNELS 3 Xrotation Yrotation Zrotation
							JOINT RightShoulder
							{
								OFFSET -2.196100 4.412496 0.070690
								CHANNELS 3 Xrotation Yrotation Zrotation
								JOINT RightShoulder_split
								{
									OFFSET -2.196100 4.412496 0.070690
									CHANNELS 3 Xrotation Yrotation Zrotation
									JOINT RightArm
									{
										OFFSET -8.771282 -2.981682 -0.094208
										CHANNELS 3 Xrotation Yrotation Zrotation
										JOINT RightForeArm
										{
											OFFSET -8.494598 0.000000 0.000000
											CHANNELS 3 Xrotation Yrotation Zrotation
											JOINT RightHand
											{
												OFFSET -18.483803 0.000000 0.000001
												CHANNELS 3 Xrotation Yrotation Zrotation
												End Site
												{
													OFFSET 0 0 0
												}
											}
										}
									}
								}
							}
						}
					}
				}
			}
		}
	}
}
MOTION
Frames: 5
Frame Time: 0.03333333
-0.598747 31.213392 4.915030 0.000000 0.000000 0.000000 0.231159 5.230114 2.972494 -35.541408 -1.682655 -0.396479 43.782735 -4.425960 2.194590 -9.932106 -0.293878 -17.442678 -1.420765 1.519299 -5.692354 0.000000 0.000000 0.000000 1.250851 6.769152 3.180855 -16.990861 7.767541 -1.462308 44.100137 10.849897 -2.563614 -31.015933 -5.504922 5.568678 -1.633435 1.579540 -7.647630 0.000000 0.000000 0.000000 1.785974 3.365325 1.492954 3.044443 -2.533622 -2.435662 1.407800 18.746120 -6.336272 0.354462 -0.985640 0.129682 0.000000 0.000000 0.000000 2.307956 21.622917 -6.084754 -16.382217 -2.894544 4.941790 -161.523469 -50.101073 170.637195 0.000000 0.000000 0.000000 -0.965953 20.606604 -5.917150 11.995298 -10.499290 1.161787 4.234034 -13.038037 -0.454972 -24.334067 7.014907 -53.316880 -100.242786 37.815178 -53.166640 0.000000 0.000000 0.000000 -2.280024 19.094952 -6.732062 9.564142 12.209531 -6.323760 9.178539 -0.371364 2.493741 -36.772424 16.799455 71.568211 -33.391302 43.539092 19.761464 0.000000 0.000000 0.000000 
-0.749187 31.447578 5.085973 0.000000 0.000000 0.000000 0.764557 8.527697 3.022215 -35.428799 -1.900169 -0.426733 41.405556 -5.503865 3.371884 -9.427350 -1.232927 -21.075811 0.353629 0.861161 -3.939911 0.000000 0.000000 0.000000 1.934622 10.031156 3.189557 -16.214401 6.926108 -1.305876 41.384987 9.884977 -1.925933 -29.905334 -6.022267 6.064533 -0.881310 1.769390 -6.861186 0.000000 0.000000 0.000000 1.992561 6.473084 1.635278 2.027548 -2.059740 -2.528295 1.499859 18.923584 -6.673035 0.448011 -0.871353 0.099151 0.000000 0.000000 0.000000 2.273517 21.676570 -6.314293 -15.533493 -5.594958 5.297292 -164.626820 -49.138170 168.034757 0.000000 0.000000 0.000000 -0.937272 20.771003 -6.262020 12.158700 -10.637091 0.526718 3.111647 -13.648542 0.086331 -22.060393 7.716946 -53.769353 -99.485510 37.992965 -52.183400 0.000000 0.000000 0.000000 -2.457853 19.115606 -7.127125 9.648858 12.513327 -7.294730 10.776374 -0.799634 2.813240 -37.241501 17.479977 73.318003 -32.267176 42.740855 18.917353 0.000000 0.000000 0.000000 
-0.792812 31.684521 5.275341 0.000000 0.000000 0.000000 1.500541 12.134852 2.994593 -35.249261 -1.658278 -0.130428 39.213031 -6.098400 4.424753 -8.612202 -2.189529 -23.866686 1.637135 0.128175 -2.318291 0.000000 0.000000 0.000000 2.680510 13.702837 3.165095 -15.011152 5.720224 -1.472417 39.262813 8.676740 -1.289328 -29.345949 -6.712487 6.605818 -0.000135 2.087841 -6.170968 0.000000 0.000000 0.000000 2.300879 9.820517 1.791286 0.525070 -1.332005 -2.218310 1.803534 18.866483 -6.728414 0.482516 -0.785183 0.001084 0.000000 0.000000 0.000000 2.188124 21.504576 -6.125070 -13.947085 -7.876975 4.327715 -166.787933 -48.368975 166.243130 0.000000 0.000000 0.000000 -0.914610 20.656737 -6.378421 12.390364 -11.387672 -0.128115 1.714019 -13.742423 0.521580 -19.372293 8.799900 -55.436708 -99.275290 38.008947 -51.050531 0.000000 0.000000 0.000000 -2.406702 18.964871 -7.068437 9.723701 12.759044 -8.629562 12.704097 -1.229928 2.777104 -37.169732 18.071135 74.060923 -31.867217 43.011255 19.031711 0.000000 0.000000 0.000000 
-0.705783 31.896740 5.430067 0.000000 0.000000 0.000000 2.394179 16.139699 2.823269 -34.861682 -1.111288 0.647273 37.780604 -6.003401 5.247746 -7.705573 -2.859159 -25.529353 1.970614 -0.622118 -1.064686 0.000000 0.000000 0.000000 3.318779 17.418712 3.067232 -13.461476 4.243536 -1.801447 37.783763 7.342813 -0.735870 -29.748578 -7.488617 7.033099 1.282596 2.555652 -5.685198 0.000000 0.000000 0.000000 2.716101 13.402095 1.857257 -1.342770 -0.509167 -1.462430 2.318232 18.541921 -6.473054 0.486717 -0.750687 -0.079464 0.000000 0.000000 0.000000 2.141142 21.050798 -5.525316 -11.908626 -9.429545 2.087880 -167.286223 -48.042997 165.866226 0.000000 0.000000 0.000000 -0.839601 20.220382 -6.263316 12.637458 -12.733803 -0.441298 0.563843 -12.878660 0.785541 -16.582927 9.982578 -58.744490 -99.616977 37.849070 -50.105947 0.000000 0.000000 0.000000 -2.035282 18.655034 -6.570069 9.859621 12.976967 -10.353907 13.974076 -1.609257 2.930184 -36.421584 18.540364 73.516311 -32.145360 44.238042 20.114328 0.000000 0.000000 0.000000 
-0.528587 32.041695 5.470158 0.000000 0.000000 0.000000 3.230446 20.283266 2.579858 -34.167967 -0.228169 1.997612 37.546725 -4.861923 5.553878 -7.120859 -2.920641 -25.737884 1.199346 -1.342151 -0.285333 0.000000 0.000000 0.000000 3.636292 21.228624 2.959334 -11.715154 2.692487 -2.330570 36.777430 6.208629 -0.405899 -30.997536 -8.271101 7.845117 2.531260 3.211486 -5.525845 0.000000 0.000000 0.000000 3.062584 17.033064 1.895035 -3.348315 0.299760 -0.292315 3.018252 17.938877 -5.968128 0.482429 -0.811729 -0.189065 0.000000 0.000000 0.000000 2.242558 20.305357 -4.632904 -9.683818 -10.194008 -1.126342 -165.603578 -48.443472 167.397063 0.000000 0.000000 0.000000 -0.753811 19.500328 -5.996207 12.851044 -14.586178 -0.159347 0.039928 -11.298028 0.844680 -14.050794 10.739756 -63.390993 -100.324428 37.650711 -49.583075 0.000000 0.000000 0.000000 -1.441247 18.181666 -5.765708 10.085971 13.217394 -12.268875 14.216529 -2.125331 3.564782 -34.588973 18.855535 71.380347 -33.032475 46.113701 22.119467 0.000000 0.000000 0.000000 
